<svg xmlns="http://www.w3.org/2000/svg" xmlns:xlink="http://www.w3.org/1999/xlink" version="1.1" width="31.570559337800645" height="44.71496279544225" viewBox="1.2507198676139601 1.2031198367149123 31.570559337800645 44.71496279544225">
  <!-- Exported by Scratch - http://scratch.mit.edu/ -->
  <path id="ID0.698368732817471" fill="#000000" stroke="none" d="M 31.6866 31.9057 L 31.665 28.9058 L 23.7152 28.9629 L 23.7368 31.9629 L 31.6866 31.9057 Z " stroke-width="1.4051410493911987"/>
  <path id="ID0.698368732817471" fill="#000000" stroke="none" d="M 31.6366 17.4557 L 31.615 14.4558 L 23.6652 14.5129 L 23.6868 17.5129 L 31.6366 17.4557 Z " stroke-width="1.4051410493911987"/>
  <path id="ID0.15913537284359336" fill="#4F4F4F" stroke="#000000" stroke-width="2.000000018315268" stroke-linecap="round" d="M 8.859 39.4505 L 11.2474 44.7834 L 31.194 23.3894 L 10.4921 2.3378 L 8.5795 7.5517 L 11.5715 20.3305 L 11.7611 25.8293 L 8.859 39.4505 Z "/>
  <path id="ID0.017054751981049776" fill="#818181" stroke="#000000" stroke-width="2.2693603784500582" stroke-linecap="round" d="M 3.5909 37.5338 L 29.9842 23.3302 L 3.4366 8.2026 L 9.4213 19.9038 L 9.4601 25.2934 L 3.5909 37.5338 Z "/>
  <path id="ID0.0018383455462753773" fill="#3BF2FF" stroke="#000000" stroke-width="1.9747176933602026" stroke-linecap="round" d="M 18.5783 26.8349 L 20.6505 23.149 L 18.6701 19.6961 L 16.2842 19.5603 L 18.5042 23.1644 L 16.2908 27.1063 L 18.5783 26.8349 Z "/>
  <path id="ID0.0018383455462753773" fill="#3BF2FF" stroke="none" stroke-linecap="round" d="M 18.3879 26.8021 L 20.42 23.1874 L 18.4779 19.8013 L 16.1382 19.6681 L 18.3153 23.2026 L 16.471 26.9159 L 18.3879 26.8021 Z " stroke-width="0.9682794304277945"/>
  <path id="ID0.19570030458271503" fill="#000000" stroke="none" stroke-linecap="round" d="M 5.4868 25.6109 L 5.4483 20.261 L 9.8982 20.229 L 9.9366 25.5788 L 5.4868 25.6109 Z " stroke-width="1.000000009157634"/>
  <path id="ID0.5064090336672962" fill="#000000" stroke="none" d="M 2.3854 17.6283 L 2.3854 17.6283 L 2.4354 17.6279 L 2.4354 17.6279 L 2.3854 17.6283 Z " stroke-width="1.000000009157634"/>
</svg>