<svg version="1.1" xmlns="http://www.w3.org/2000/svg" xmlns:xlink="http://www.w3.org/1999/xlink" width="43.29015" height="47.18814"><g transform="translate(-218.53832,-156.40593)"><g data-paper-data="{&quot;isPaintingLayer&quot;:true}" fill="none" fill-rule="nonzero" stroke="none" stroke-width="none" stroke-linecap="none" stroke-linejoin="miter" stroke-miterlimit="10" stroke-dasharray="" stroke-dashoffset="0" font-family="none" font-weight="none" font-size="none" text-anchor="none" style="mix-blend-mode: normal"><path d="M255.04586,183.38926v-6.38496c0,0 4.30067,0 5.09993,0c0.26642,0 0.36141,0.16063 0.36141,0.16063c0,0 0.32126,0.33397 0.32126,0.65055c0,1.84927 0,3.7606 0,4.73852c0,0.32597 -0.24094,0.59433 -0.24094,0.59433c0,0 -0.17531,0.24094 -0.44174,0.24094c-0.79926,0 -5.09993,0 -5.09993,0z" data-paper-data="{&quot;origPos&quot;:null}" fill="#d4d4d4" stroke="#000000" stroke-width="2" stroke-linecap="butt"/><path d="M220.21253,175.46071c0,0 0.1166,1.90475 0.68735,1.81776c12.64493,-1.92753 12.46419,-2.09232 12.73531,-2.08577c8.85911,0.01399 12.33049,0.11008 21.1896,0.11008c0.80768,0 1.37413,0.39036 1.37413,0.39036c0,0 0.69547,0.5023 0.69547,1.07364c0,2.70829 0,5.37304 0,6.57923c0,0.40207 -0.44965,0.9764 -0.44965,0.9764c0,0 -0.72604,0.41426 -1.33016,0.41426c-9.01622,0 -12.79177,-0.08759 -21.80796,-0.08759c-0.34,0 -0.00465,0 -11.99904,-2.10275c-0.75276,-0.13197 -1.25328,1.83503 -1.25328,1.83503c0,0 -0.26378,-0.57891 -0.26378,-1.17688c0,0 0,-5.58279 0,-6.79087c0,-0.4027 0.42205,-0.95289 0.42205,-0.95289z" data-paper-data="{&quot;origPos&quot;:null,&quot;origRot&quot;:0}" fill="#52d1a2" stroke="#000000" stroke-width="2" stroke-linecap="butt"/><path d="M236.76772,202.08007c0,0 -0.24427,-0.83749 -0.24427,-1.53802c0,-9.80141 0.02666,-15.31348 0.0382,-25.11488c0.00713,-6.04935 0.01066,-9.45136 0.01066,-15.50071c0,-0.98367 0.48303,-1.67352 0.48303,-1.67352c0,0 0.62152,-0.84701 1.32847,-0.84701c3.35119,0 6.64849,0 8.14104,0c0.49753,0 1.20819,0.54762 1.20819,0.54762c0,0 0.51263,0.88422 0.51263,1.61998c0,15.86311 0,37.86862 0,40.64723c0,0.92622 -0.43968,2.05204 -0.43968,2.05204c0,0 -0.71635,0.32127 -1.45625,0.32127c0,0 -6.90802,0 -8.40289,0c-0.49829,0 -1.17909,-0.51401 -1.17909,-0.51401z" data-paper-data="{&quot;origPos&quot;:null}" fill="#6cb79b" stroke="none" stroke-width="0" stroke-linecap="butt"/><path d="M219.53832,188.07269c0,0 -0.29967,-0.08431 -0.30166,-0.56455c-0.006,-1.44074 -0.03971,-9.53851 -0.06513,-15.64365c-0.00152,-0.3642 0.29267,-0.56254 0.29267,-0.56254c0,0 0.17857,-0.20759 0.48267,-0.10321c1.81241,0.62214 3.40757,1.16965 4.6441,1.59408c0.41217,0.14148 0.80403,0.55162 0.80403,0.55162c0,0 0.25212,0.50092 0.25212,0.94257c0,4.0342 0,8.6445 0,10.33712c0,0.56419 -0.25212,1.2566 -0.25212,1.2566c0,0 -0.44937,0.48138 -0.89838,0.66848c-1.34699,0.56125 -2.6764,1.11518 -4.38943,1.82893c-0.33775,0.14073 -0.56888,-0.15835 -0.56888,-0.15835z" data-paper-data="{&quot;origPos&quot;:null}" fill="#6cb79b" stroke="#000000" stroke-width="2" stroke-linecap="butt"/><path d="M256.94395,189.13651v-18.11884h0.38551v18.11884z" data-paper-data="{&quot;origPos&quot;:null}" fill="#00b606" stroke="#000000" stroke-width="2" stroke-linecap="butt"/><path d="M238.78141,164.9324c0,-1.62452 1.31695,-2.94145 2.94145,-2.94145c1.62452,0 2.94145,1.31693 2.94145,2.94145c0,1.62452 -1.31693,2.94145 -2.94145,2.94145c-1.62452,0 -2.94145,-1.31693 -2.94145,-2.94145z" data-paper-data="{&quot;origPos&quot;:null}" fill="#e9e9e9" stroke="#1e3c27" stroke-width="2" stroke-linecap="butt"/><path d="M238.90746,195.57079c0,-1.62452 1.31695,-2.94145 2.94145,-2.94145c1.62452,0 2.94145,1.31693 2.94145,2.94145c0,1.62452 -1.31693,2.94145 -2.94145,2.94145c-1.62452,0 -2.94145,-1.31693 -2.94145,-2.94145z" data-paper-data="{&quot;origPos&quot;:null}" fill="#e9e9e9" stroke="#1e3c27" stroke-width="2" stroke-linecap="butt"/><path d="M246.01946,179.94484c0,1.46208 -1.87663,2.64732 -4.19158,2.64732c-2.31495,0 -4.19158,-1.18523 -4.19158,-2.64732c0,-1.46208 1.87663,-2.64732 4.19158,-2.64732c2.31495,0 4.19158,1.18523 4.19158,2.64732z" data-paper-data="{&quot;origPos&quot;:null}" fill="#3ecee8" stroke="#0f4d4c" stroke-width="2" stroke-linecap="butt"/><path d="M247.3186,175.17603h-11.27556" data-paper-data="{&quot;origPos&quot;:null}" fill="none" stroke="#447261" stroke-width="2" stroke-linecap="round"/><path d="M247.51471,184.68673h-11.27556" data-paper-data="{&quot;origPos&quot;:null}" fill="none" stroke="#447261" stroke-width="2" stroke-linecap="round"/><path d="M236.21108,202.08007c0,0 -0.24427,-0.83749 -0.24427,-1.53802c0,-9.80141 0.02666,-15.31348 0.0382,-25.11488c0.00713,-6.04935 0.01066,-9.45136 0.01066,-15.50071c0,-0.98367 0.48303,-1.67352 0.48303,-1.67352c0,0 0.62153,-0.84701 1.32848,-0.84701c3.35119,0 6.64848,0 8.14104,0c0.49753,0 1.20819,0.54762 1.20819,0.54762c0,0 0.51263,0.88422 0.51263,1.61998c0,15.86311 0,37.86862 0,40.64723c0,0.92622 -0.43968,2.05204 -0.43968,2.05204c0,0 -0.71636,0.32127 -1.45625,0.32127c0,0 -6.90802,0 -8.40289,0c-0.49829,0 -1.17909,-0.51401 -1.17909,-0.51401z" data-paper-data="{&quot;origPos&quot;:null}" fill="none" stroke="#000000" stroke-width="2" stroke-linecap="butt"/></g></g></svg>