<svg xmlns="http://www.w3.org/2000/svg" xmlns:xlink="http://www.w3.org/1999/xlink" version="1.1" width="47.64860146298737" height="56.85009758725495" viewBox="0.694100176022794 0.6417000638706943 47.64860146298737 56.85009758725495">
  <!-- Exported by Scratch - http://scratch.mit.edu/ -->
  <path id="ID0.8079384746961296" fill="#765319" stroke="#000000" stroke-width="1.9999999310049492" stroke-linecap="round" d="M 33.1226 3.8373 L 33.1638 55.1373 L 27.5649 56.4918 L 21.4457 32.6467 L 21.4399 25.3467 L 27.6208 1.6417 L 33.1226 3.8373 Z "/>
  <path id="ID0.07862357888370752" fill="#AE7B26" stroke="none" d="M 23.5942 27.3819 L 30.3309 3.4625 L 28.3095 2.8932 L 21.5728 26.8126 L 23.5942 27.3819 Z " stroke-width="0.9999999580679253"/>
  <path id="ID0.07862357888370752" fill="#AE7B26" stroke="none" d="M 23.7494 30.7367 L 30.0447 54.7761 L 28.0132 55.3081 L 21.7179 31.2687 L 23.7494 30.7367 Z " stroke-width="0.9999999977354168"/>
  <path id="ID0.03242205874994397" fill="#765319" stroke="#000000" stroke-width="1.9062038982053973" stroke-linecap="round" d="M 43.2725 25.1668 L 47.3427 29.1635 L 43.1884 33.0169 L 32.7951 33.0252 L 15.7129 32.039 L 7.3973 30.8957 L 4.5567 38.6979 L 2.5233 38.7996 L 1.7087 37.3002 L 1.6941 19.2002 L 2.5064 17.7996 L 4.3141 18.0481 L 7.4843 26.6956 L 15.7078 25.689 L 32.8791 25.1752 L 43.2725 25.1668 Z "/>
  <path id="ID0.36273922864347696" fill="#D29F30" stroke="#000000" stroke-width="1.8612237674372167" d="M 39.4182 16.1632 L 39.4211 19.8132 L 33.1323 19.8183 L 33.1294 16.1683 L 39.4182 16.1632 Z "/>
  <path id="ID0.36273922864347696" fill="#D29F30" stroke="#000000" stroke-width="1.8612237674372167" d="M 39.4182 38.4132 L 39.4211 42.0632 L 33.1323 42.0683 L 33.1294 38.4183 L 39.4182 38.4132 Z "/>
  <path id="ID0.7051461488008499" fill="#AE7B26" stroke="none" stroke-linecap="round" d="M 4.4489 20.6471 L 4.3726 36.4905 L 2.6817 37.4579 L 2.4887 18.9097 L 4.4489 20.6471 Z " stroke-width="1.432539947922927"/>
  <path id="ID0.5214398624375463" fill="#FFD315" stroke="none" d="M 30.6276 36.0832 L 30.6345 44.6832 L 28.9845 44.6845 L 28.9776 36.0845 L 30.6276 36.0832 Z " stroke-width="0.947159594947397"/>
  <path id="ID0.5214398624375463" fill="#FFD315" stroke="none" d="M 30.8276 13.3832 L 30.8345 21.9832 L 29.1845 21.9845 L 29.1776 13.3845 L 30.8276 13.3832 Z " stroke-width="0.947159594947397"/>
  <path id="ID0.36100819474086165" fill="#15C4FF" stroke="none" d="M 34.3806 28.9668 C 34.3812 29.6635 34.0537 30.295 33.5251 30.7527 C 32.9954 31.2095 32.2647 31.4935 31.4577 31.4941 C 30.6507 31.4948 29.9194 31.212 29.3891 30.7561 C 28.8597 30.2992 28.5312 29.6682 28.5306 28.9715 C 28.5301 28.2748 28.8576 27.6433 29.3862 27.1855 C 29.9158 26.7287 30.6466 26.4448 31.4536 26.4441 C 32.2606 26.4435 32.9918 26.7263 33.5222 27.1822 C 34.0516 27.6391 34.3801 28.2701 34.3806 28.9668 Z " stroke-width="0.9681351367184224"/>
  <path id="ID0.2210590741597116" fill="#FFD214" stroke="none" stroke-linecap="round" d="M 12.891 26.8568 L 12.8943 30.9068 L 10.2441 30.6089 L 10.2413 27.1589 L 12.891 26.8568 Z " stroke-width="0.9999999655024746"/>
  <path id="ID0.11622761422768235" fill="none" stroke="#000000" stroke-width="1.9999999310049492" stroke-linecap="round" d="M 45.3381 22.8774 L 45.3483 35.5774 "/>
  <path id="ID0.4791477043181658" fill="#D29F30" stroke="none" stroke-linecap="round" d="M 44.3917 27.5777 L 44.394 30.5277 L 42.8452 31.9789 L 42.8405 26.0789 L 44.3917 27.5777 Z " stroke-width="0.9999999655024746"/>
  <path id="ID0.6345016704872251" fill="none" stroke="#463207" stroke-width="0.9999999655024746" d="M 33.993 28.936 C 33.9936 29.695 33.6861 30.3823 33.1885 30.8807 C 32.6909 31.3791 32.0042 31.6876 31.2452 31.6882 C 30.4862 31.6888 29.7989 31.3814 29.3005 30.8838 C 28.8021 30.3862 28.4936 29.6994 28.493 28.9404 C 28.4923 28.1814 28.7998 27.4942 29.2974 26.9958 C 29.795 26.4974 30.4817 26.1888 31.2407 26.1882 C 31.9997 26.1876 32.687 26.4951 33.1854 26.9927 C 33.6838 27.4903 33.9923 28.177 33.993 28.936 Z "/>
</svg>